<svg xmlns="http://www.w3.org/2000/svg" width="512" height="512" viewBox="0 0 169.333 169.333"><path fill="#009ad2" d="M81.327 151c-1-1.06-2.355-2.849-3.01-3.975l-1.19-2.046-.17 2.544c-.222 3.314-.41 3.477-2.101 1.822-1.306-1.276-3.683-5.492-3.683-6.532 0-.238-.121-.752-.27-1.142l-.269-.709-.68 1.287c-3.54 6.695-5.644 5.374-7.434-4.666l-.212-1.19-1.572 2.042c-2.276 2.957-2.597 2.93-4.102-.335-1.725-3.742-1.89-6.815-.658-12.206.355-1.554.645-2.904.645-3.001s-.605.341-1.344.973c-1.97 1.686-2.071 1.74-2.363 1.282-.946-1.484.546-8.108 2.816-12.502.433-.839.31-.872-1.225-.33-3.037 1.07-2.899-.625.598-7.338 1.842-3.537 1.843-3.416-.004-3.033-3.043.631-1.754-3.92 2.936-10.358 2.07-2.843 2.086-3.055.136-1.819-4.87 3.087-4.198-.324 1.304-6.627 2.384-2.731 2.466-2.914 1.032-2.315-4.17 1.743-4.03.6.914-7.486 1.23-2.011 1.227-1.8.029-2.001-1.226-.205-1.78-.543-1.536-.937.236-.381 3.18-1.875 3.695-1.875.72 0 .723-.528.005-.801-.976-.371-2.23-1.291-2.23-1.636 0-.19.737-.238 2.249-.143 2.77.172 2.776.373-.128-3.764-8.353-11.898-11.617-26.698-8.023-36.379.639-1.72.939-1.735 1.523-.078 1.447 4.098 3.567 7.584 8.46 13.912C77.138 54.729 80.793 67.614 74.12 70.15c-1.14.434-.057.862 1.396.552 2.379-.508 4.898-3.566 4.534-5.505-.198-1.058 1.231-3.755 2.394-4.517 1.168-.765.677-1.414-1.07-1.414-1.075 0-2.095-.775-3.093-2.348-1.363-2.15-1.256-2.243 2.403-2.092l3.16.13-.493-.954c-.271-.524-1.037-1.727-1.7-2.673-1.862-2.651.374-2.162 3.094.676l1.13 1.18-.106-1.88c-.122-2.156.035-2.183 2.06-.353l1 .902.895-1.766c1.224-2.412 1.709-2.123 2.23 1.329.15.986.169 1.002.733.595 2.73-1.97 3.949-1.694 2.562.58-.749 1.229-.682 1.33.729 1.09a1014 1014 0 0 0 2.844-.488c3.174-.55 3.876-.228 2.533 1.157l-.9.929 1.182-.024c3.072-.061 3.668.676 1.352 1.672l-1.521.655 1.947.444c5.157 1.176 5.68 3.356.804 3.356-.971 0-1.443.158-2.087.7l-.832.7-1.565-.436c-3.38-.939-5.3-.406-2.918.81 2.398 1.224 3.762 1.322 5.293.38 1.592-.98 1.947-1.01 3.337-.283 3.693 1.932 9.322 3.84 17.464 5.919 5.99 1.53 8.596 2.97 8.583 4.747-.008 1.168-.377 1.281-1.433.442-1.188-.944-2.29-1.192-4.435-.998-3.574.324-3.965 3.365-.432 3.365 4.542 0 7.035 2.43 7.307 7.122.22 3.802-3.683 4.212-13.648 1.435-2.844-.792-3.186-.712-1.595.374 3.417 2.33 10.55 3.857 13.802 2.954 1.357-.377 1.474-.164.543.986-3.3 4.077-9.846 3.515-14.689-1.261-1.032-1.018-1.92-1.808-1.973-1.755-.25.25 1.505 3.348 2.374 4.189l.979.947-1.884.833c-1.037.457-3.096 1.566-4.577 2.464-16.353 9.913-25.107 11.957-31.778 7.422-3.784-2.573-6.38-8.143-6.896-14.796-.137-1.768-.288-2.448-.542-2.448-.638 0-1.009 4.41-.655 7.787.721 6.877 2.574 9.588 8.472 12.392 5.24 2.49 8.376 5.001 10.453 8.366l1.014 1.642.625-2.195c.604-2.117 1.257-3.381 1.849-3.579 1.713-.57 4.99 8.919 4.315 12.495-.84 4.451-1.745 4.282-6.43-1.201-.836-.978-.98-1.066-.848-.517.56 2.317.463 6.012-.227 8.693-.84 3.26-.843 3.31-.2 2.966.647-.346 1.979-2.436 2.713-4.26.32-.795.653-1.53.74-1.634.406-.488 4.646 1.614 5.29 2.623 3.183 4.988 2.73 13.47-.914 17.115-.62.62-.636.58-1.157-2.66l-.46-2.867-.331 1.525c-.716 3.291-3.014 6.746-5.69 8.554l-1.35.911-.318-.732c-.176-.403-.325-1.622-.331-2.71l-.012-1.976-1.549 2.373c-3.35 5.133-3.804 5.328-6.289 2.694m3.075-15.41c0-.972-1.02-2.833-3.043-5.548-2.176-2.92-2.065-2.81-1.84-1.851.948 4.05 4.883 10.01 4.883 7.399m-18.344-5.89c1.136-1.486 3.098-7.188 2.632-7.653-.355-.355-3.876 6.501-4.066 7.916-.183 1.363.25 1.283 1.434-.264m9.058-.888c.381-1.093.37-4.836-.019-6.178l-.306-1.058-.217.926c-.865 3.683-.406 9.029.542 6.31m10.03-10.91c-.118-2.221-.877-4.4-2.058-5.9-.695-.884-.685-.755.258 3.556 1.212 5.534 2.024 6.591 1.8 2.345m-25.36-6.011c.817-1.129 1.66-3.137 1.988-4.735l.19-.926-.798.926c-1.235 1.434-2.378 3.458-2.652 4.696-.332 1.5.201 1.516 1.272.038m13.983-6.19c-.026-3.851-.644-4.354-.91-.742-.166 2.258.27 4.187.706 3.123.12-.291.211-1.363.204-2.381m-7.487-7.997c1.066-1.395 2.32-3.908 2.742-5.497l.282-1.058-1.188 1.322c-2.284 2.544-3.805 5.104-3.818 6.426-.008.863.77.394 1.982-1.193m25.695-17.817c.62-.3 1.851-1.192 2.737-1.982 1.087-.97 1.992-1.533 2.783-1.732l1.172-.296-2.01-1.36-3.092-2.092c-3.298-2.232-7.096-1.676-10.466 1.53-1.103 1.05-2.601 2.28-3.329 2.733-1.47.916-1.468.918.87.84 1.54-.05 1.786.025 3.307 1.015 3.144 2.045 5.698 2.472 8.028 1.344m-3.024-3.476c-.867-.867-.198-2.593 1.006-2.593q1.325-.002 1.323 1.357c0 1.277-1.495 2.07-2.329 1.236m-5.874-1.234c0-1.476 5.117-3.842 7.012-3.243.622.197.671.256.226.274-1.167.047-4.055 1.116-5.293 1.96-1.798 1.226-1.945 1.302-1.945 1.01m4.26-7.968c1.136-.77 1.244-.79 4.472-.798 4.99-.012 5.653-.47 3.24-2.24-1.39-1.022-1.948-1.14-2.461-.522-.988 1.19-3.112 1.564-4.336.762-.827-.542-1.062-.386-1.74 1.147-.303.683-.803 1.512-1.112 1.84l-.563.6h.668c.367 0 1.192-.356 1.832-.79m-14.18-3.114a62 62 0 0 1-.655-1.786c-2.141-6.073-4.818-11.206-11.095-21.275l-3.862-6.193-.193 1.43c-.958 7.1 2.244 17.014 7.316 22.652 2.57 2.858 9.184 6.887 8.489 5.172m16.635-3.053c.712-.712 1.882-2.686 2.15-3.628.231-.812-2.58 1.794-3.196 2.964-.724 1.373-.074 1.785 1.046.664m16.309 81.146c.002-.132.245-1.132.54-2.224 1.245-4.621 1-8.23-.977-14.394-.864-2.694-1.339-4.795-1.709-7.566a281 281 0 0 0-1.037-7.012c-.55-3.339-.688-7.403-.272-8.062.38-.6.52-.268.964 2.27.225 1.294.818 4.013 1.316 6.043 1.047 4.267 1.114 5.264.395 5.88-.5.428-.489.48.531 2.51 4.13 8.212 4.797 14.786 2.057 20.255-.76 1.516-1.819 2.863-1.808 2.3m27.642-57.985c-.088-.545-.51-2.139-.938-3.54-1.157-3.785-.478-6.204.95-3.385 1.498 2.956 1.963 6.573.962 7.48-.688.622-.796.56-.974-.555M97.367 50.706c0-.07.403-1.418.895-2.995 1.494-4.785 1.934-9.092 1.375-13.428l-.203-1.568-1.522 2.89c-.838 1.59-2.464 4.394-3.614 6.23-1.15 1.838-2.293 3.713-2.541 4.168s-.654.827-.903.827-1.033.372-1.742.828c-2.581 1.656-1.189-2.445 2.977-8.766 2.262-3.433 4.989-8.229 5.903-10.385.914-2.155 1.006-2.173 1.867-.35 2.606 5.507 2.219 15.35-.849 21.583-.377.767-1.643 1.511-1.643.966"/></svg>