<svg xmlns="http://www.w3.org/2000/svg" width="512" height="512" viewBox="0 0 192 192"><path fill="#fff" d="M62.1 4.4h-.6c-3.3.5-6.1 2.8-8.5 5q-6 6-9 14A33 33 0 0 0 41.9 37q.5 8.9 5 16.7c.2.7.8 1.4.8 2-4.8 4.8-9.6 9.5-13.4 15a73.6 73.6 0 0 0 43 113 74 74 0 0 0 43.6-2.2q4.8-1.8 9.5-4 12 5 24.1 9.6c2.4.8 5.4.7 7-1.4 1.5-1.8 1.4-4.4.7-6.5l-7.1-21.6c-.2-.7.7-1.3 1-2a74 74 0 0 0-7.2-95.4l-3.5-3.6c2.4-3.8 4.7-7.9 5.9-12.3q1.3-5.8 1-11.8c-.3-7-3.2-14-7.7-19.4a27 27 0 0 0-9.2-7.8c-2.2-1-5.1-1.3-7 .6a6 6 0 0 0-1.7 4.4c-.2 6.8 0 13.5-.3 20.3q-.7 5.3-2.7 10.2c-.3.7-.6 2-1.6 2-1-.2-.5-1.4-1-2q-1.9-4.6-6-7.5c-2.6-1.7-6.8-1-8.2 2-.4.8-.8 1.5-1.4.5a25 25 0 0 0-8.4-6c-2.3-.8-4.8-1.7-7.2-1.1-2.2.3-4.4 1.7-4.8 4-.5 2-.1 4-.1 6a16 16 0 0 0-6.6.3c-2 .6-4.1 1.2-5.6 2.8-.6.6-1.5 0-1.8-.6a36 36 0 0 1-3.9-21c.2-3.5.7-7 .6-10.4a6 6 0 0 0-5.6-5.4"/><path d="M62 3.8c-5.1 0-12.7 6.9-17 15.5a36 36 0 0 0 .3 32.8l1.7 3.5-4 4a72 72 0 0 0-20.6 66.3 76 76 0 0 0 57.3 59 75 75 0 0 0 47.2-5.1l3.5-1.6 11 4.4c6 2.5 11.7 4.7 12.7 5 5.4 1.8 9.3-.6 9.3-5.8 0-1.3-.9-4.3-3.9-13l-3.8-11.4 2.4-3.6a74 74 0 0 0-7.9-93l-4-4.2 1.6-2.6a40 40 0 0 0 4.3-10.2 36 36 0 0 0-10.7-35.1c-6.2-5.9-12-6.5-14.7-1.5-.8 1.4-.8 1.7-.8 12.4 0 9.4 0 11.4-.6 13.6-1.2 5.2-3.2 10.5-3.2 8.4l-1-2.5a18 18 0 0 0-6.2-6.7c-3-1.4-6.7-.5-8.2 2l-.7 1-2-2a21 21 0 0 0-9.2-5c-2.4-.7-3-.7-4.9-.4q-6 1-5.7 7.5l.1 2.4-1.4-.1c-2.9-.3-8.6 1.4-10 3l-.8.6c-.5 0-2.3-3.9-3.1-6.8-1.3-4.5-1.7-9-1.2-14.4.7-9 .8-10.3.3-11.6A6.5 6.5 0 0 0 62 3.8M62 9c1.1 0 1 2.1.6 8.6-.6 7.7-.6 9.7.3 14.7a38 38 0 0 0 7.4 16.6l-1.8 1-3.9 2.3-2.2 1.5-.5-.8a41 41 0 0 1-6-23.5c.1-6.6 0-7-1.5-4.1-2.3 4.5-3 11.3-1.7 17.4.8 4.1 2.8 9.1 4.9 12.8 1.2 2.1 1.4 2.7 1.1 3.4q-.3.7-.6.8a31 31 0 0 1-11-17.3c-.8-3.4-.7-11 .2-14.7 2-7.2 7.7-15.4 12.8-18q1.3-.6 2-.7m70.2.2c1.7 0 6 3.3 9 7q3.6 4.6 5.3 10.4c.9 2.7 1 3.4 1 8.5s-.1 5.7-1 8.4a33 33 0 0 1-9 14.5c-3.2 3-3.4 2.4-1-2.7q3.7-7.2 4.6-12.6a39 39 0 0 0 0-12.5c-.6-2.3-2.2-5.7-2.6-5.5-.2 0-.4 2.6-.6 6.3-.2 5.1-.4 6.9-1 9.7a54 54 0 0 1-6.7 15.6c-2.1 3.3-2.1 3.6-.3 5.2 3.1 2.9 4.1 6.6 4.7 18 .7 12.4.8 13.3 2.4 17.1 4.5 11.3 4.7 19.6.5 15q-2.4-2.7-2.8-.6c0 .5.2 2.4.6 4.3 2 9.3.8 18.5-2 17.1l-1.7-1.1c-.8-.6-1-.7-1.5-.3-.6.6-.5 1.8.7 5.6.7 2.1 1.1 5.4 2 13.8l1.5 12.3q.7 2.2 2.8 1.8 2-.3 1.9-2.3a316 316 0 0 0-2.7-24.8 7 7 0 0 0 3.4-3.4c1.5-3 2-8 1-14.2-.1-1.3 0-1.4.9-1.8q3.7-1.5 3.7-7.4c0-3.5-.8-6.7-3-11.8l-2-5.4c-.2-.9-.5-5-.8-9.2a133 133 0 0 0-2-19.2l2.7-2.2 2.3-2 3.5 3.5a67.5 67.5 0 0 1 5.2 89.4c-.9 1-1.6 2.3-1.6 2.7s.5 1.8 1 3.1c1.7 4.1 7.4 21.8 7.3 22.6q-.1.6-.8.8a320 320 0 0 1-22.3-8.6c-2.3-.9-4.4-1.7-4.9-1.7s-2.5.8-4.6 1.8A71 71 0 0 1 90 181c-8.3-.9-16.5-3-23.5-6.4l-3.8-1.7V169a79 79 0 0 1 1.8-17.5q-.6-.9-2.2 1.2-1.6 2.3-2.6 1.6c-.3-.3 1.4-20 1.9-21.5.3-.9-.5-1.6-1.4-1.4q-1.8.3-3-3.5c-1-2.7-.9-10.2 0-14q1.2-4.7-1-2.7c-2.5 2-2.5 2-3.2 1-1.3-1.5-.5-6.6 2-13.3 1.7-4.3 2.2-6.4 2.5-11.3.9-11.4 2.7-20 4.2-19.5q5.8 2.6 12.1-.7c1.3-.7 1.7-.8 2-.4l.2.7c0 .6 2 2.4 3.5 3.2 1.5.7 2.1.9 4.7.9a9 9 0 0 0 5.2-1 14 14 0 0 0 6.4-6c1.7-3.2.5-3.8-2.8-1.3-3.2 2.4-5.3 3.2-8.2 3.3-2.2 0-2.5-.1-3.4-1-1.7-1.6-1.7-4 0-5.7q.6-.7.6-1.4c-.3-1.2-1.6-.9-5.1 1.5Q67 67 64 62.6c-.8-1.2-.5-2.1 1.1-4a29 29 0 0 1 14.1-7.2q3.8-1 3.1-2l-2.1-.7c-2.2-.4-4.3-1.5-4.9-2.4-.8-1.3 1.7-3 5.2-3.6q4.6-.7 10.3 1.3c1.5.6 2.9 1 3.2.8.2 0 .5-.6.5-1q0-1-2-3.1-4.6-5-2.7-7c.6-.6 1-.7 2.6-.5a20 20 0 0 1 10.4 5l3.7 4.4c1.3 1.7 2.6 3.2 2.8 3.3s.8 0 1.2-.2c.6-.3.7-.6.5-2-.6-4.5-.6-5.5-.1-6 1.4-2 5.7 2.2 7.6 7.6q.7 1.9.9 5.3c.2 4 .6 4.3 3 1.9 4.2-4.5 7.8-14 8.8-23.1.3-3 .3-5.6 0-11-.4-7.1-.3-8.5.7-9.1zm-81.8 51c.2 0 1.6 1.2 3.3 2.6l3 2.6-.5 1.4c-.8 2.1-1.4 6.8-1.8 12.7-.7 10.2-1 11.6-4.5 20-3.7 9-3.3 15.7 1 18 1 .6 1.1.8 1 1.7-.5 1.8-.2 7.6.3 10 .3 1.2 1 2.9 1.4 3.7a9 9 0 0 0 3 3.1q.4.3 0 2.6a101 101 0 0 0-1.7 14.5c0 3.3 0 3.8.7 5q.8 1.1 2 1.5c1 .4 1.1.5 1 1.3l-1.1 8.7c-.8 0-7.5-5.6-11-9.1a68.6 68.6 0 0 1 4-100.5m21.1 21a10 10 0 0 0-4 1c-3.3 1.5-5.6 6.4-4 8 .9.9 1.5.7 3.3-1q5.7-5.6 10 0c2 2.5 3.4 1.9 2.9-1.2a8 8 0 0 0-8.2-6.8m50 .1a9 9 0 0 0-4.3 1c-2.7 1.3-4.9 4.4-4.9 7q0 1.4.8 1.2t2-1.4q4.8-4.9 10-.5 1.2 1.2 2 1.6c1.8.8 2.8-1.6 1.8-4.2a8 8 0 0 0-7.3-4.7m-27 4.7q-8 .1-12.6 7a63 63 0 0 0-6.8 17.1c-.9 3.8-.8 10.4.1 13.8a20 20 0 0 0 14 15c2.4.6 7.4.6 9.7 0a20 20 0 0 0 13.9-14.6c.9-3.4.9-13 0-16.7-2.5-10.6-8-19-13.7-21q-1.7-.7-4.5-.6m.3 4.6c3.2 0 4 .4 6.1 2.3 4 4 7.5 10.9 8.6 17.2.6 3.2.5 8.8-.2 11.4q-1.3 5-4.5 8.3a12 12 0 0 1-6.7 3.8c-9 2.1-16.7-2.5-19.1-11.5a33 33 0 0 1 0-13.3Q82.9 95 90 91.7c2-1 2.5-1.2 5-1.2m5.4 10.5a16 16 0 0 0-5.6 3.4l-2.2 1.7-1-1a20 20 0 0 0-5.5-3.8c-1.1-.3-1.2-.3-2 .6q-1.5 1.7.5 4.3c.9 1.2 4.3 3.7 5.6 4 .6.2.6.4.6 5.4-.2 6.4-.4 6.8-3 7-2.1.1-3.4-.5-4.8-2.3s-2.5-1.7-2.4.1c0 2.1 2.2 4.3 5.4 5.5a6 6 0 0 0 4.9-.2l1.3-.7 1.5.7c3.3 1.3 7.4.6 10.2-1.8 2.2-2 3-4 2-5-.9-.8-1.1-.7-2.8 1-1.9 1.8-3.2 2.4-5.2 2.4-2.5 0-3.1-1-3.4-5.2v-4.8q.1-2.2 1-2c.4-.2 1.7-.9 2.8-1.7 2.3-1.5 4-3.8 4-5.3 0-1-1-2.3-1.9-2.3"/></svg>