<svg xmlns="http://www.w3.org/2000/svg" width="512" height="512" viewBox="0 0 192 192"><path fill="#fff" d="M62.113 4.443a5 5 0 0 0-.578.026c-3.363.433-6.131 2.701-8.527 4.945-3.965 3.878-7.106 8.78-9.047 14.066-1.517 4.12-2.332 8.925-2.084 13.496.234 5.879 2.165 11.56 4.943 16.705.257.692.902 1.444.918 2.095-4.789 4.706-9.674 9.4-13.422 15.013-6.629 9.909-11.087 21.383-12.282 33.32-.97 9.698.009 19.562 2.753 28.953 4.989 16.746 16.279 31.583 30.945 41.137 6.664 4.248 14.077 7.415 21.644 9.497 14.354 3.743 29.645 2.775 43.54-2.233 3.26-1.153 6.326-2.568 9.487-3.98 8.035 3.216 16.007 6.6 24.109 9.604 2.341.768 5.418.76 7.062-1.36 1.41-1.851 1.364-4.393.632-6.508-2.158-7.265-4.757-14.393-7.145-21.585-.197-.718.721-1.287.993-1.943 4.184-5.943 7.733-12.364 10.13-19.24 2.591-7.323 3.976-15.225 4.13-22.999.219-9.811-1.297-19.703-5.03-28.867-3.7-9.19-9.47-17.292-16.418-24.316l-3.497-3.62c2.456-3.865 4.704-7.922 5.925-12.364 1.064-3.836 1.124-7.769 1.015-11.743-.285-7.033-3.2-13.99-7.68-19.453-2.618-3.114-5.468-6.091-9.227-7.797-2.18-1.017-5.098-1.258-6.923.584a5.72 5.72 0 0 0-1.806 4.443c-.22 6.758.102 13.528-.283 20.279-.352 3.497-1.451 6.88-2.647 10.17-.37.737-.62 1.996-1.606 2.015-.944-.181-.563-1.395-1.045-2.018-1.177-2.994-3.304-5.602-5.898-7.486-2.693-1.67-6.893-.946-8.32 2.064-.382.756-.76 1.49-1.377.479-2.468-2.419-5.123-4.778-8.405-6.011-2.293-.805-4.75-1.75-7.207-1.138-2.184.298-4.348 1.734-4.806 4.003-.487 1.955-.114 3.975-.078 5.956-2.216-.305-4.477-.235-6.633.392-1.994.55-4.099 1.193-5.551 2.748-.649.642-1.502.104-1.82-.6-3.519-6.323-4.554-13.772-3.889-20.914.218-3.519.728-6.994.606-10.499-.34-2.806-2.738-5.272-5.6-5.316"/><path d="M61.977 3.78c-5.094.003-12.64 6.905-16.918 15.472-5.256 10.529-5.184 22.062.201 32.807l1.754 3.497-4.037 3.997c-6.497 6.432-10.573 12.059-14.471 19.983-7.15 14.53-9.18 29.826-6.15 46.295 3.626 19.688 15.753 37.657 33.026 48.935 6.746 4.403 16.478 8.477 24.356 10.194 15.626 3.405 31.928 1.615 47.153-5.182l3.525-1.573 10.91 4.425c6 2.433 11.734 4.691 12.743 5.018 5.425 1.765 9.325-.662 9.325-5.8 0-1.326-.894-4.362-3.85-13.077l-3.851-11.351 2.454-3.638c9.038-13.398 13.332-28.39 12.814-44.746-.592-18.66-7.385-34.486-20.737-48.318l-4.019-4.163 1.576-2.6a40 40 0 0 0 4.347-10.164c.963-3.603 1.196-10.83.48-14.944-1.324-7.624-5.124-14.48-11.181-20.18-6.24-5.868-12.094-6.447-14.762-1.457-.722 1.35-.74 1.656-.74 12.376 0 9.447-.085 11.365-.609 13.655-1.18 5.176-3.22 10.498-3.222 8.409 0-.228-.447-1.36-.995-2.518-1.178-2.49-4.285-5.899-6.165-6.763-2.946-1.354-6.722-.456-8.208 1.95l-.682 1.104-2.12-1.983c-2.699-2.525-5.589-4.139-9.097-5.077-2.45-.656-3.021-.698-4.92-.374-4.078.699-5.951 3.165-5.73 7.542l.121 2.373-1.387-.114c-2.913-.241-8.59 1.45-9.962 2.966-.321.355-.708.645-.86.645-.486 0-2.25-3.87-3.097-6.79-1.294-4.463-1.674-8.992-1.216-14.419.763-9.013.802-10.264.367-11.621-.932-2.905-3.361-4.792-6.166-4.791m.151 5.252c1.12.056 1.041 2.094.531 8.589-.599 7.637-.552 9.725.333 14.644.911 5.068 3.434 11.062 6.203 14.741.723.96 1.268 1.793 1.225 1.87l-.003.004c-.062.057-.877.485-1.812.955-.934.47-2.684 1.528-3.887 2.352l-2.19 1.498-.482-.735c-1.119-1.707-2.988-5.782-3.893-8.482-1.587-4.74-2.052-8.162-2.037-14.998.015-6.7-.138-7.106-1.598-4.198-2.297 4.569-2.962 11.373-1.712 17.462.835 4.072 2.746 9.084 4.851 12.726 1.254 2.17 1.434 2.7 1.162 3.414-.176.466-.45.846-.607.846-.508 0-4.905-4.775-6.286-6.828-2.259-3.356-3.456-6.06-4.645-10.492-.907-3.373-.827-10.954.153-14.654 1.93-7.283 7.694-15.407 12.782-18.018.851-.436 1.473-.718 1.911-.696Zm70.166.15c1.696.012 5.982 3.335 8.945 7.07 2.349 2.96 4.218 6.551 5.383 10.344.842 2.739.915 3.428.915 8.477s-.073 5.737-.915 8.476a33.23 33.23 0 0 1-9.074 14.487c-3.134 2.931-3.32 2.341-.858-2.7 2.391-4.89 3.834-8.904 4.539-12.619.67-3.532.673-9.886.008-12.487-.606-2.367-2.187-5.681-2.656-5.569-.196.048-.423 2.626-.554 6.328-.181 5.123-.378 6.876-1.095 9.736-1.382 5.522-3.755 11.102-6.633 15.6-2.094 3.275-2.115 3.55-.348 5.156 3.19 2.903 4.189 6.667 4.793 18.055.655 12.339.778 13.244 2.319 17.107 4.491 11.254 4.764 19.544.49 14.892-1.595-1.741-2.569-1.916-2.735-.491-.055.472.214 2.4.597 4.282 1.894 9.294.793 18.511-2.04 17.076-.434-.22-1.193-.726-1.689-1.124-.771-.62-.978-.66-1.445-.273-.674.56-.532 1.787.65 5.601.662 2.138 1.135 5.345 2.042 13.822.65 6.073 1.329 11.6 1.51 12.284.388 1.457 1.322 2.068 2.732 1.786 1.502-.301 1.907-.796 1.907-2.333 0-2.347-1.931-19.534-2.493-22.175-.33-1.558-.406-2.535-.201-2.603 1.236-.412 2.647-1.806 3.44-3.396 1.52-3.054 1.891-8.078 1.046-14.186-.175-1.271-.12-1.39.804-1.772 2.523-1.045 3.732-3.46 3.732-7.459 0-3.504-.806-6.707-2.966-11.81-.912-2.156-1.815-4.592-2.006-5.413-.19-.82-.574-4.94-.851-9.151-.665-10.113-1.106-14.615-1.666-17.012-.254-1.085-.359-2.066-.234-2.181a362 362 0 0 1 2.593-2.22l2.366-2.013 3.49 3.552c4.127 4.202 5.466 5.818 8.326 10.048 10.391 15.373 13.796 35.051 9.269 53.547-2.346 9.58-6.899 19.028-12.431 25.799-.859 1.051-1.56 2.25-1.56 2.665.001.415.434 1.815.963 3.112 1.678 4.116 7.404 21.828 7.299 22.572-.062.428-.37.743-.768.785-.665.069-14.712-5.28-22.364-8.517-2.224-.94-4.417-1.711-4.872-1.711-.454 0-2.53.812-4.613 1.805-10.67 5.086-24.425 7.64-35.262 6.548-8.304-.837-16.515-3.052-23.565-6.36l-3.746-1.758v-3.723c0-4.609.511-10.013 1.338-14.137.347-1.724.553-3.261.459-3.414-.386-.624-1.15-.193-2.162 1.216-1.108 1.543-2.127 2.143-2.69 1.582-.298-.299 1.467-19.958 1.93-21.492.264-.877-.472-1.596-1.397-1.365-1.087.274-2.337-1.155-3.064-3.504-.835-2.696-.8-10.217.063-13.943.76-3.275.478-4.028-1.054-2.802-2.413 1.931-2.438 1.94-3.124 1.093-1.304-1.61-.52-6.718 2.057-13.389 1.664-4.312 2.114-6.362 2.472-11.287.833-11.443 2.668-20.076 4.137-19.461 4.035 1.688 7.79 1.456 12.154-.756 1.307-.66 1.685-.735 1.91-.377.156.244.286.545.288.668.014.62 1.953 2.41 3.462 3.195 1.473.768 2.115.89 4.703.897 2.689.01 3.229-.1 5.236-1.048 2.805-1.327 5.194-3.536 6.399-5.917 1.639-3.238.437-3.763-2.874-1.258-3.107 2.351-5.27 3.207-8.156 3.225-2.2.015-2.473-.063-3.409-.958-1.674-1.601-1.663-3.94.026-5.74.37-.397.621-.995.557-1.333-.243-1.27-1.565-.884-5.074 1.485-6.454 4.354-11.13 5.166-13.032 2.263-.747-1.14-.469-2.08 1.168-3.94 2.608-2.962 7.64-5.555 14.062-7.244 2.652-.698 3.55-1.272 3.11-1.985-.088-.14-1.044-.443-2.127-.674-2.163-.458-4.28-1.518-4.846-2.424-.815-1.31 1.62-2.989 5.214-3.595 2.925-.494 6.524-.03 10.21 1.316 1.501.548 2.947.912 3.21.811.268-.102.484-.613.484-1.137 0-.7-.516-1.504-1.95-3.046-3.076-3.298-3.986-5.648-2.692-6.944.632-.63.987-.706 2.62-.559 3.068.279 7.313 2.373 10.327 5.096.742.67 2.411 2.616 3.712 4.323 1.3 1.707 2.585 3.188 2.857 3.293s.802.025 1.176-.176c.6-.32.655-.567.462-2.08-.56-4.383-.578-5.379-.103-6.01 1.447-1.932 5.712 2.344 7.626 7.648.453 1.256.785 3.187.912 5.303.247 4.124.649 4.383 2.979 1.929 4.264-4.49 7.87-13.984 8.785-23.133.298-2.986.302-5.602.012-10.9-.39-7.19-.288-8.554.681-9.166a.8.8 0 0 1 .438-.105M50.5 60.125a.1.1 0 0 1 .04.005c.137.048 1.594 1.262 3.238 2.697l2.99 2.608-.487 1.38c-.743 2.107-1.408 6.829-1.789 12.721-.66 10.211-.97 11.591-4.479 20.033-3.69 8.875-3.347 15.66.907 17.935 1.125.603 1.223.763 1.024 1.665-.4 1.814-.191 7.621.36 9.985.297 1.28.907 2.948 1.355 3.713.741 1.263 2.332 2.887 3.113 3.174.186.068.123 1.11-.158 2.587-.824 4.33-1.52 10.733-1.576 14.514-.049 3.293.024 3.787.71 4.89.491.791 1.18 1.366 1.934 1.616 1.032.34 1.15.49.984 1.27-.218 1.028-.837 6.861-.844 7.96-.004.413-.119.75-.256.75-.721-.005-7.422-5.619-10.907-9.14-7.89-7.972-13.334-16.874-16.85-27.555-2.345-7.125-3.304-13.312-3.295-21.248.016-12.232 2.914-23.23 8.824-33.48 2.329-4.042 3.709-6 7.228-10.264 2.637-3.195 7.281-7.758 7.934-7.814m21.117 21.018a9.7 9.7 0 0 0-4.025.948c-3.247 1.527-5.61 6.392-3.925 8.079.831.83 1.398.633 3.268-1.135 3.849-3.64 6.967-3.602 10.02.121 2.022 2.47 3.394 1.84 2.81-1.29-.78-4.18-4.212-6.761-8.148-6.723m50.045.053a9.3 9.3 0 0 0-4.337.956c-2.748 1.351-4.888 4.45-4.888 7.084 0 .95.117 1.124.766 1.124.46 0 1.287-.545 2.08-1.372 3.146-3.278 6.565-3.43 9.873-.443.718.648 1.67 1.346 2.119 1.55 1.76.802 2.757-1.636 1.7-4.159-1.224-2.92-4.146-4.657-7.313-4.74m-26.877 4.729c-5.438.117-9.5 2.345-12.667 6.949-2.306 3.352-5.636 11.681-6.85 17.136-.835 3.753-.768 10.423.138 13.75 2.102 7.717 7.273 13.251 14.05 15.033 2.389.63 7.344.648 9.643.036 6.873-1.83 11.878-7.119 13.875-14.664.886-3.349.89-12.874.006-16.653-2.483-10.618-7.975-19.064-13.699-21.066-1.16-.405-2.524-.564-4.496-.521m.326 4.603c3.176.004 4.056.34 6.09 2.317 3.974 3.867 7.47 10.85 8.591 17.165.56 3.152.466 8.801-.187 11.345-.831 3.24-2.454 6.245-4.497 8.333-2.112 2.16-3.789 3.106-6.733 3.8-8.946 2.11-16.653-2.522-19.118-11.488-.824-3-.83-10.292-.007-13.322 2.473-9.127 6.002-14.695 10.816-17.066 1.97-.97 2.51-1.086 5.045-1.082m5.419 10.493c-.83.006-3.148 1.394-5.64 3.376l-2.146 1.706-1.06-.995c-1.841-1.722-4.232-3.376-5.478-3.786-1.133-.374-1.249-.343-2.008.54-1.004 1.167-.847 2.675.457 4.384.914 1.199 4.395 3.648 5.618 3.955.655.164.677.368.58 5.402-.123 6.357-.33 6.84-2.997 6.996-2.088.124-3.323-.465-4.78-2.28-1.423-1.77-2.464-1.73-2.409.089.063 2.118 2.262 4.333 5.42 5.462 1.747.624 3.377.554 4.879-.213l1.318-.672 1.562.672c3.227 1.389 7.371.671 10.126-1.753 2.218-1.952 3.003-3.988 1.946-5.044-.77-.77-1.017-.678-2.74 1.024-1.839 1.818-3.175 2.452-5.135 2.438-2.51-.018-3.173-1.02-3.473-5.242-.115-1.627-.105-3.793.022-4.815.197-1.569.353-1.89 1-2.052.421-.106 1.705-.821 2.853-1.586 2.286-1.527 4-3.816 4-5.344 0-1.05-1.033-2.268-1.915-2.262"/></svg>